<svg xmlns="http://www.w3.org/2000/svg" version="1.1" xmlns:xlink="http://www.w3.org/1999/xlink" width="512" height="512" x="0" y="0" viewBox="0 0 24 24" style="enable-background:new 0 0 512 512" xml:space="preserve" class=""><g><rect width="22" height="22" x="1" y="1" fill="#187b4d" rx="6" opacity="1" class=""></rect><path fill="#ffffff" d="M11.207 10.625 10.415 12l.794 1.375h1.588L13.589 12l-.794-1.375zM6.976 6.053l2.905 5.032 3.853-6.673a7.73 7.73 0 0 0-6.758 1.641zm7.663-1.372-2.904 5.03h7.711a7.82 7.82 0 0 0-4.807-5.03zM9.36 19.322l2.904-5.03H4.552a7.82 7.82 0 0 0 4.807 5.03zm4.491-8.697 3.85 6.668a7.717 7.717 0 0 0 1.961-6.668h-5.81zm-9.514 2.75h5.81l-3.85-6.667a7.718 7.718 0 0 0-1.96 6.667zm12.684 4.573-2.905-5.031-3.853 6.673a7.73 7.73 0 0 0 6.758-1.642z" opacity="1" class=""></path></g></svg>